# xmcd
#
# Track frame offsets: 
#        150
#        20602
#        40912
#        68690
#        95457
#        116532
#        141022
#        164657
#        189750
#        212345
#
# Disc length: 3159 seconds
#
# Revision: 0
# Processed by: cddbd v1.5.2PL0 Copyright (c) Steve Scherf et al.
# Submitted via: ExactAudioCopy v1.0b3
#
DISCID=800c550a
DTITLE=Various Artist - Ngay Xua Em Noi
DYEAR=1993
DGENRE=
TTITLE0=Duy Khanh - Nguoi dau gio
TTITLE1=Huong Lan - Nuoc non ngan dam ra di
TTITLE2=Che Linh - Cho xin song lai
TTITLE3=Thanh Tuyen - Tieng coi trong suong dem
TTITLE4=Duy Khanh - Trang phuong Nam
TTITLE5=Che Linh, Thanh Tuyen - Ngay xua anh noi
TTITLE6=Huong Lan - Hoa trang thoi cai tren ao tim
TTITLE7=Duy Khanh - Mua dong binh si
TTITLE8=Thanh Tuyen - Gio chuyen mua thuong
TTITLE9=Che Linh - Dem hoa chau
EXTD=
EXTT0=
EXTT1=
EXTT2=
EXTT3=
EXTT4=
EXTT5=
EXTT6=
EXTT7=
EXTT8=
EXTT9=
PLAYORDER=
